<svg id="layer" xmlns="http://www.w3.org/2000/svg" viewBox="0 0 35.66 64.45"><defs><style>.cls-1{fill:#70af1a;}.cls-2{fill:#9c3;}.cls-3{fill:#618c03;}</style></defs><path class="cls-1" d="M19.05,49.84a2.75,2.75,0,0,1,2.8.28,8.62,8.62,0,0,1,3.91,6.78,2.74,2.74,0,0,1-1.14,2.51l-8.21,4.77a2.74,2.74,0,0,0,1.14-2.51,8.62,8.62,0,0,0-3.91-6.78,2.81,2.81,0,0,0-2.81-.28Z"/><path class="cls-2" d="M13.64,54.89c-2.17-1.26-3.94-.26-4,2.24a8.65,8.65,0,0,0,3.92,6.78c2.17,1.25,3.94.25,3.94-2.24A8.62,8.62,0,0,0,13.64,54.89Z"/><path class="cls-3" d="M19,32.53l8.21-4.77c-1.37.79-3.25.68-5.33-.52L13.7,32C15.79,33.21,17.67,33.32,19,32.53Z"/><path class="cls-3" d="M16.6,9.41,8.38,14.18C7,15,6.2,16.64,6.19,19A16.59,16.59,0,0,0,13.7,32l8.22-4.77a16.57,16.57,0,0,1-7.52-13C14.41,11.86,15.25,10.2,16.6,9.41Z"/><path class="cls-1" d="M22,1.89c-3.82-2.21-7.28-2.41-9.77-1L4,5.7c2.5-1.45,6-1.25,9.77,1,7.52,4.48,13.76,15,13.61,23.73-.19,11.84-10.3,18-13.75,21.13L19,49a30.09,30.09,0,0,0,8.12-5.55c4.08-3.94,8.39-10,8.51-17.7C35.81,17,29.5,6.36,22,1.89Z"/><path class="cls-2" d="M27.44,30.35c0,15.58-13.51,21.06-13.81,21.17C13.35,51.08,0,30.08,0,14.51,0,5.79,6.19,2.28,13.77,6.66S27.47,21.63,27.44,30.35ZM13.7,32c4.15,2.39,7.52.46,7.53-4.31a16.48,16.48,0,0,0-7.48-13C9.6,12.31,6.2,14.23,6.19,19A16.59,16.59,0,0,0,13.7,32Z"/></svg>