<?xml version="1.0" encoding="utf-8"?>
<!-- Generator: Adobe Illustrator 27.0.0, SVG Export Plug-In . SVG Version: 6.00 Build 0)  -->
<svg version="1.1" id="Capa_1" xmlns="http://www.w3.org/2000/svg" xmlns:xlink="http://www.w3.org/1999/xlink" x="0px" y="0px"
	 viewBox="0 0 150.6 109.3" style="enable-background:new 0 0 150.6 109.3;" xml:space="preserve">
<style type="text/css">
	.st0{fill:#176637;}
	.st1{fill:#27AE60;}
	.st2{fill:#D35400;}
	.st3{fill:#43761C;}
	.st4{fill:#7BA525;}
	.st5{fill:#9BBE23;}
	.st6{fill:#396910;}
	.st7{fill:#C3DE59;}
	.st8{fill:#FFFFFF;}
	.st9{fill:#DBDBDB;}
	.st10{fill:#566472;}
	.st11{fill:#7A7272;}
	.st12{fill:#AAB7B7;}
	.st13{fill:#E8945B;}
	.st14{fill:#F4B876;}
	.st15{fill:#EFEFEF;}
	.st16{fill:#EFF3F3;}
	.st17{fill:#BDC3C7;}
	.st18{fill:#61913D;}
	.st19{fill:#9BC04E;}
	.st20{fill:#BAD950;}
	.st21{fill:#E4F991;}
	.st22{fill:#991A17;}
	.st23{fill:#C1382A;}
	.st24{fill:#A8492F;}
	.st25{fill:#B7632A;}
	.st26{fill:#33271E;}
	.st27{fill:#87201B;}
</style>
<polygon class="st0" points="75.3,109.3 150.6,73.6 150.6,72.1 0,72.1 0,73.6 "/>
<polygon class="st1" points="75.3,107.8 150.6,72.1 75.3,36.3 0,72.1 "/>
<g>
	<path class="st2" d="M131.7,50.8c0.8,0,1.5,0.3,1.5,0.6v19c0,0.1-0.1,0.2-0.1,0.3l0,0c-0.2,0.1-0.4,0.2-0.6,0.3l0,0
		c-0.3,0.1-0.5,0.1-0.8,0.1c-0.8,0-1.5-0.3-1.5-0.6v-19C130.2,51.1,130.8,50.8,131.7,50.8z"/>
	<path class="st3" d="M131.8,40.3c3.6,0,9.8,14.9,9.8,18.1c0,2.2-2.4,6.7-9.8,6.7c-7,0-9.8-4.5-9.8-6.7
		C122.1,55.2,129.1,40.3,131.8,40.3z"/>
	<path class="st4" d="M131.5,58.7c-0.8-6.3,0.4-18.4,0.4-18.4c3.7,0,9.9,14.9,9.8,18.1C141.5,61.9,132,62.8,131.5,58.7z"/>
	<path class="st5" d="M136.9,57.9c1.8,0,3.6-0.8,3.5-1.6c0-2.6-4-11-6.9-14.7c-1.6-1.6-0.2,10.9,0.5,15
		C134.3,57.9,136.3,57.9,136.9,57.9L136.9,57.9z"/>
	<path class="st6" d="M131.1,62.5c6.3,0.6,9.3-0.8,9.3-0.8c-1.4,1.8-4,3.5-8.6,3.5c-6.6,0-9.5-4-9.7-6.3
		C122.8,60.2,126.7,62,131.1,62.5z"/>
	<path class="st7" d="M134.4,46.9c0.9,2.1,2,3.7,2.5,3.6c0.5-0.1,0.2-2-0.7-4.1s-2-3.7-2.5-3.6S133.5,44.8,134.4,46.9z"/>
</g>
<polygon class="st8" points="32.3,50.9 33.2,50.3 45.1,55.9 45.1,70.4 44.2,70.8 "/>
<polygon class="st9" points="32.3,65.2 32.3,50.7 44.2,56.3 44.2,70.8 "/>
<polygon class="st10" points="42.8,56.7 33.7,52.4 33.7,64.8 42.8,69.1 "/>
<polygon class="st9" points="38.3,54.2 38.3,67.3 37.6,67 37.6,53.9 "/>
<polygon class="st11" points="73,43.3 23,67 73,90.7 118.6,69 "/>
<polygon class="st9" points="118.6,73 73,94.7 73,90.7 118.6,69 "/>
<polygon class="st12" points="73,94.7 23,71 23,67 73,90.7 "/>
<polygon class="st13" points="64,83.8 64,56.8 27.5,40.7 27.5,66.9 "/>
<polygon class="st14" points="98.8,19.2 73,62.4 64.9,74.6 83.3,83.8 114.1,69.3 114.1,42.8 "/>
<g>
	<polygon class="st8" points="45.9,55 46.5,54.7 50.1,56.3 50.1,65.9 49.5,66.1 	"/>
	<polygon class="st9" points="45.9,64.5 45.9,55 49.5,56.6 49.5,66.1 	"/>
	<polygon class="st10" points="48.9,57.1 46.5,56 46.5,64 48.9,65.2 	"/>
</g>
<g>
	<polygon class="st8" points="106.8,50.7 105.7,49.8 89.1,56.7 89.1,75.6 91.2,76.5 	"/>
	<polygon class="st15" points="106.9,69.2 106.8,50.7 91.2,57.9 91.2,76.5 	"/>
	<polygon class="st10" points="92.2,58.8 106.2,52.3 106.2,68.2 92.2,74.6 	"/>
	<polygon class="st15" points="98.9,54.9 98.9,72 99.8,71.6 99.8,54.5 	"/>
</g>
<polygon class="st16" points="96.3,86.1 91.9,84.3 78.2,90.5 82.6,92.6 "/>
<polygon class="st12" points="82.6,94.2 78.2,92.2 78.2,90.5 82.6,92.6 "/>
<polygon class="st17" points="82.6,94.2 96.3,87.8 96.3,86.1 82.6,92.6 "/>
<path class="st18" d="M53,90.4c-2.8,0-4.9-1.2-4.9-2v-2.6c0-1.1,1.2-3.4,4.9-3.4c3.5,0,5,2.3,5,3.4v2.7C58,89.3,55.9,90.4,53,90.4z"
	/>
<path class="st19" d="M48.9,84.6c0.1,1.1,1.9,1.9,4.1,1.7s3.8-1.1,3.7-2.2s-1.9-1.9-4.1-1.8S48.8,83.5,48.9,84.6z"/>
<path class="st20" d="M49.8,83.7c0.1,0.5,1.2,0.7,2.4,0.5s2.1-0.7,2-1.2s-1.2-0.7-2.4-0.5S49.7,83.3,49.8,83.7z"/>
<path class="st21" d="M50.9,83.1c0,0.2,0.5,0.2,0.9,0.2s0.8-0.3,0.8-0.5s-0.5-0.2-0.9-0.2S50.8,83,50.9,83.1z"/>
<path class="st3" d="M61.6,95.1c-3.7,0-6.6-1.6-6.6-2.6V89c0-1.5,1.6-4.5,6.6-4.5c4.7,0,6.6,3,6.6,4.5v3.5
	C68.2,93.6,65.4,95.1,61.6,95.1z"/>
<path class="st4" d="M56.1,87.4c0.2,1.4,2.6,2.5,5.4,2.3s5-1.5,4.9-2.9s-2.6-2.5-5.5-2.3S56,86,56.1,87.4z"/>
<path class="st5" d="M57.4,86.2c0.1,0.6,1.6,0.9,3.2,0.6s2.8-1,2.7-1.6s-1.6-0.9-3.2-0.6S57.2,85.6,57.4,86.2z"/>
<path class="st7" d="M58.8,85.4c0.1,0.2,0.6,0.3,1.2,0.2s1.1-0.4,1-0.6s-0.6-0.3-1.2-0.2S58.7,85.2,58.8,85.4z"/>
<path class="st18" d="M69.2,97.2c-2.5,0-4.4-1-4.4-1.8V93c0-1,1.1-3.1,4.4-3.1c3.2,0,4.4,2,4.4,3.1v2.4
	C73.6,96.2,71.8,97.2,69.2,97.2z"/>
<path class="st19" d="M65.5,92c0.1,1,1.7,1.7,3.7,1.6s3.4-1,3.3-2S70.8,90,68.8,90S65.4,91,65.5,92z"/>
<path class="st20" d="M66.3,91.2c0.1,0.4,1.1,0.6,2.2,0.4s1.9-0.7,1.8-1.1s-1.1-0.6-2.2-0.4S66.2,90.8,66.3,91.2z"/>
<path class="st21" d="M67.3,90.7c0,0.2,0.4,0.2,0.8,0.2s0.7-0.2,0.7-0.4s-0.4-0.2-0.8-0.2S67.2,90.5,67.3,90.7z"/>
<path class="st18" d="M23.5,76.5c-2.8,0-4.9-1.2-4.9-2v-2.6c0-1.1,1.2-3.4,4.9-3.4c3.5,0,5,2.3,5,3.4v2.7
	C28.4,75.4,26.4,76.5,23.5,76.5z"/>
<path class="st19" d="M19.3,70.7c0.1,1.1,1.9,1.9,4.1,1.8s3.8-1.1,3.7-2.2s-1.9-1.9-4.1-1.7S19.2,69.6,19.3,70.7z"/>
<path class="st20" d="M20.3,69.8c0.1,0.5,1.2,0.7,2.4,0.5s2.1-0.7,2-1.2s-1.2-0.7-2.4-0.5S20.2,69.3,20.3,69.8z"/>
<path class="st21" d="M21.3,69.2c0,0.2,0.5,0.2,0.9,0.2S23,69.1,23,69s-0.5-0.3-0.9-0.2S21.3,69,21.3,69.2z"/>
<path class="st3" d="M32.1,81.2c-3.7,0-6.6-1.5-6.6-2.6v-3.5c0-1.5,1.6-4.5,6.6-4.5c4.7,0,6.6,3,6.6,4.5v3.5
	C38.6,79.7,35.9,81.2,32.1,81.2z"/>
<path class="st4" d="M26.6,73.5c0.1,1.4,2.6,2.5,5.4,2.3s5-1.5,4.9-2.9s-2.6-2.5-5.4-2.3S26.4,72,26.6,73.5z"/>
<path class="st5" d="M27.8,72.3c0.1,0.6,1.6,0.9,3.2,0.6c1.6-0.3,2.8-1,2.7-1.6s-1.6-0.9-3.2-0.6S27.7,71.7,27.8,72.3z"/>
<path class="st7" d="M29.2,71.5c0.1,0.2,0.6,0.3,1.2,0.2s1.1-0.4,1-0.6s-0.6-0.3-1.2-0.2S29.2,71.3,29.2,71.5z"/>
<path class="st18" d="M39.6,83.3c-2.5,0-4.4-1-4.4-1.8v-2.4c0-1,1.1-3.1,4.4-3.1c3.2,0,4.4,2,4.4,3.1v2.4
	C44,82.3,42.2,83.3,39.6,83.3z"/>
<path class="st19" d="M35.9,78.1c0.1,1,1.7,1.7,3.7,1.6s3.4-1,3.3-2s-1.7-1.6-3.7-1.5S35.8,77.1,35.9,78.1z"/>
<path class="st20" d="M36.8,77.3c0.1,0.4,1.1,0.6,2.2,0.4s1.9-0.7,1.8-1.1s-1.1-0.6-2.2-0.4S36.7,76.9,36.8,77.3z"/>
<path class="st21" d="M37.7,76.7c0,0.2,0.4,0.2,0.8,0.2s0.7-0.2,0.7-0.4s-0.4-0.2-0.8-0.2S37.7,76.6,37.7,76.7z"/>
<path class="st2" d="M15.2,56.8c0.8,0,1.5,0.3,1.5,0.6v19c0,0.1-0.1,0.2-0.1,0.2l0,0c-0.2,0.1-0.4,0.2-0.6,0.3l0,0
	C15.7,77,15.5,77,15.2,77c-0.8,0-1.5-0.3-1.5-0.6v-19C13.7,57.1,14.4,56.8,15.2,56.8z"/>
<path class="st3" d="M15.4,46.3c3.7,0,9.8,14.9,9.8,18.1c0,2.2-2.4,6.7-9.8,6.7c-7,0-9.8-4.5-9.8-6.7C5.6,61.2,12.7,46.3,15.4,46.3z
	"/>
<path class="st4" d="M15,64.7c-0.8-6.3,0.4-18.4,0.4-18.4c3.7,0,9.9,14.9,9.8,18.1C25,67.9,15.6,68.8,15,64.7z"/>
<path class="st5" d="M20.4,63.9c1.8,0,3.5-0.8,3.5-1.6c0-2.6-4-11-6.9-14.7c-1.6-1.6-0.2,10.9,0.5,15C17.8,63.8,19.8,63.9,20.4,63.9
	L20.4,63.9z"/>
<path class="st6" d="M14.6,68.4c6.3,0.6,9.3-0.8,9.3-0.8c-1.4,1.8-4,3.5-8.6,3.5c-6.6,0-9.4-4-9.7-6.3C6.3,66.1,10.2,68,14.6,68.4z"
	/>
<path class="st7" d="M17.9,52.8c0.9,2.1,2,3.7,2.5,3.6s0.2-2-0.7-4.1s-2-3.7-2.5-3.6S17,50.7,17.9,52.8z"/>
<polygon class="st14" points="82,74.7 82,48 64.1,57.6 64,83.8 "/>
<polygon class="st22" points="70.9,64.6 70.9,62 25.4,40.4 25.4,43 "/>
<polygon class="st23" points="98.8,15.7 70.9,62 25.4,40.4 49.6,0 "/>
<g id="Capa_2_00000038378950191232501020000007952738454072635571_">
	<polygon class="st13" points="83.6,83 73.6,77.9 73.6,65.9 83.6,61.3 	"/>
	<polygon class="st24" points="82.5,82.2 74.8,78.3 74.8,65.4 80.3,62.8 82.5,63.9 	"/>
	<polygon class="st25" points="76.3,77.5 76.5,77.6 76.5,64.6 76.3,64.7 	"/>
	<polygon class="st25" points="78.5,78.7 78.7,78.9 78.7,64.9 78.5,64.8 	"/>
	<polygon class="st25" points="80.7,80 80.9,80.1 80.9,66.2 80.7,66.1 	"/>
	<path class="st26" d="M76.2,71.8c0.1,0-0.7,0.1-0.7,0.3c0,0.2,0,0.7-0.2,0.7c-0.3,0-0.3-0.6-0.2-0.7C75.1,71.8,76.1,71.8,76.2,71.8
		z"/>
</g>
<g id="Capa_3">
	<polygon class="st27" points="106.8,50.7 91.2,57.9 91.2,36.9 106,30.3 106.8,31.6 	"/>
	<polygon class="st23" points="89.1,35.6 91.2,36.9 91.2,57.9 89.1,56.9 	"/>
	<polygon class="st23" points="103.5,29.2 89.1,35.6 91.2,36.9 106,30.3 	"/>
</g>
<g id="Capa_2_00000008855009855157857010000005064269624846009230_">
	<g>
		<polygon class="st15" points="105.7,43.9 105.7,31.2 92.3,37.2 92.3,49.9 		"/>
		<polygon class="st10" points="92.9,38.1 105.1,32.8 105.1,42.9 92.9,48.5 		"/>
		<polygon class="st15" points="98.8,34.9 98.8,46.2 99.7,45.9 99.7,34.6 		"/>
	</g>
</g>
<polygon class="st27" points="116.2,42 116.2,43.1 114.1,44 114.1,42.8 98.8,19.2 89.1,35.6 73,62.4 73,63.6 70.9,64.6 70.9,62 
	98.8,15.7 "/>
</svg>
