<?xml version="1.0" encoding="utf-8"?>
<!-- Generator: Adobe Illustrator 27.0.0, SVG Export Plug-In . SVG Version: 6.00 Build 0)  -->
<svg version="1.1" xmlns="http://www.w3.org/2000/svg" xmlns:xlink="http://www.w3.org/1999/xlink" x="0px" y="0px"
	 viewBox="0 0 66 30" style="enable-background:new 0 0 66 30;" xml:space="preserve">
<style type="text/css">
	.st0{display:none;}
	.st1{display:inline;}
	.st2{fill:#FFFFFF;}
</style>
<g id="Capa_1" class="st0">
	<rect class="st1" width="66" height="30"/>
</g>
<g id="Capa_2">
	<g>
		<path class="st2" d="M18.4,2c-0.4,0-0.7,0.3-0.7,0.7s0.3,0.7,0.7,0.7s0.7-0.3,0.7-0.7S18.8,2,18.4,2z"/>
		<path class="st2" d="M3.9,15.8c-0.4,0-0.7,0.3-0.7,0.7s0.3,0.7,0.7,0.7s0.7-0.3,0.7-0.7S4.3,15.8,3.9,15.8z"/>
		<path class="st2" d="M5.5,6.1c-0.4,0-0.7,0.3-0.7,0.7s0.3,0.7,0.7,0.7s0.7-0.3,0.7-0.7S5.9,6.1,5.5,6.1z"/>
		<path class="st2" d="M14,10.9c-0.4,0-0.7,0.3-0.7,0.7s0.3,0.7,0.7,0.7s0.7-0.3,0.7-0.7S14.4,10.9,14,10.9z"/>
		<path class="st2" d="M10.8,23.6c-0.4,0-0.7,0.3-0.7,0.7s0.3,0.7,0.7,0.7s0.7-0.3,0.7-0.7S11.2,23.6,10.8,23.6z"/>
		<path class="st2" d="M20.6,20.2c-0.4,0-0.7,0.3-0.7,0.7s0.3,0.7,0.7,0.7s0.7-0.3,0.7-0.7S21,20.2,20.6,20.2z"/>
		<path class="st2" d="M28.2,27.7c-0.4,0-0.7,0.3-0.7,0.7s0.3,0.7,0.7,0.7s0.7-0.3,0.7-0.7S28.6,27.7,28.2,27.7z"/>
		<path class="st2" d="M25.3,12.2c-0.4,0-0.7,0.3-0.7,0.7s0.3,0.7,0.7,0.7s0.7-0.3,0.7-0.7S25.7,12.2,25.3,12.2z"/>
		<path class="st2" d="M32.6,4.1c-0.4,0-0.7,0.3-0.7,0.7s0.3,0.7,0.7,0.7c0.4,0,0.7-0.3,0.7-0.7S33,4.1,32.6,4.1z"/>
		<path class="st2" d="M34.5,16.5c-0.4,0-0.7,0.3-0.7,0.7s0.3,0.7,0.7,0.7s0.7-0.3,0.7-0.7S34.9,16.5,34.5,16.5z"/>
		<path class="st2" d="M46,18.1c-0.4,0-0.7,0.3-0.7,0.7s0.3,0.7,0.7,0.7s0.7-0.3,0.7-0.7S46.4,18.1,46,18.1z"/>
		<path class="st2" d="M40.8,6.1c-0.4,0-0.7,0.3-0.7,0.7s0.3,0.7,0.7,0.7s0.7-0.3,0.7-0.7S41.2,6.1,40.8,6.1z"/>
	</g>
</g>
</svg>
