<?xml version="1.0" encoding="utf-8"?>
<!-- Generator: Adobe Illustrator 27.0.0, SVG Export Plug-In . SVG Version: 6.00 Build 0)  -->
<svg version="1.1" xmlns="http://www.w3.org/2000/svg" xmlns:xlink="http://www.w3.org/1999/xlink" x="0px" y="0px"
	 viewBox="0 0 66 30" style="enable-background:new 0 0 66 30;" xml:space="preserve">
<style type="text/css">
	.st0{display:none;}
	.st1{display:inline;fill:#66DBFF;}
	.st2{fill:#FFFFFF;}
</style>
<g id="Capa_1" class="st0">
	<rect class="st1" width="66" height="30"/>
</g>
<g id="Capa_2">
	<path class="st2" d="M39.1,17.8C39.1,17.8,39.1,17.8,39.1,17.8c0.1-0.3,0.3-0.7,0.3-1.1c0-1.7-2.2-3-4.9-3s-4.9,1.4-4.9,3
		c0,0.1,0,0.2,0.1,0.3c0,0,0,0-0.1,0c-1.9,0-3.6,1-4.4,2.5c-0.4-0.2-0.9-0.3-1.3-0.3c-2,0-3.6,1.6-3.6,3.6s1.6,3.6,3.6,3.6
		c1,0,1.9-0.4,2.6-1.1c0.9,0.7,2,1.1,3.2,1.1c1.7,0,3.1-0.8,4-1.9c1.2,1.1,3.2,1.9,5.4,1.9c3.6,0,6.5-1.9,6.5-4.3
		S42.7,17.8,39.1,17.8z"/>
	<path class="st2" d="M62.1,7.4C62,7.4,62,7.4,62.1,7.4c0.1-0.3,0.3-0.7,0.3-1.1c0-1.7-2.2-3-4.9-3s-4.9,1.4-4.9,3
		c0,0.1,0,0.2,0.1,0.3c0,0,0,0-0.1,0c-1.9,0-3.6,1-4.4,2.5c-0.4-0.2-0.9-0.3-1.3-0.3c-2,0-3.6,1.6-3.6,3.6s1.6,3.6,3.6,3.6
		c1,0,1.9-0.4,2.6-1.1c0.9,0.7,2,1.1,3.2,1.1c1.7,0,3.1-0.8,4-1.9c1.2,1.1,3.2,1.9,5.4,1.9c1.5,0,2.8-0.3,3.9-0.9l0-6.9
		C64.9,7.7,63.5,7.4,62.1,7.4z"/>
	<path class="st2" d="M66,22.2c-0.9-0.5-2.1-0.9-3.4-0.9c-2.7,0-4.9,1.4-4.9,3c0,0.1,0,0.2,0.1,0.3c0,0,0,0-0.1,0
		c-1.9,0-3.6,1-4.4,2.5C52.9,27.1,52.4,27,52,27c-1.8,0-3.3,1.3-3.5,3L66,30L66,22.2z"/>
</g>
</svg>
