<svg id="Capa_1" data-name="Capa 1" xmlns="http://www.w3.org/2000/svg" xmlns:xlink="http://www.w3.org/1999/xlink" viewBox="0 0 50.6 50.6"><defs><style>.cls-1{fill:url(#Degradado_sin_nombre_4);}.cls-2{fill:#d8a1ff;}</style><radialGradient id="Degradado_sin_nombre_4" cx="-183.98" cy="-278.25" r="0.02" gradientTransform="matrix(2291.67, 0, 0, -2294.96, 421645.76, -638552.34)" gradientUnits="userSpaceOnUse"><stop offset="0" stop-color="#442f55" stop-opacity="0.98"/><stop offset="1" stop-color="#12002c"/></radialGradient></defs><path class="cls-1" d="M9.81.09h31A9.81,9.81,0,0,1,50.6,9.9V41.2A9.8,9.8,0,0,1,40.8,51h-31A9.81,9.81,0,0,1,0,41.2V9.9A9.81,9.81,0,0,1,9.81.09Z"/><path class="cls-2" d="M42,28.46a.32.32,0,0,0,.29-.3,11.13,11.13,0,0,0,.19-2.44c0-3.42-1.75-7.63-6.76-7.63S27.92,22.53,27.92,28c0,5,2.28,9.47,8.35,9.47a10.43,10.43,0,0,0,4.63-.87.49.49,0,0,0,.23-.46V33.22c0-.2-.12-.23-.28-.16a9,9,0,0,1-3.75.71c-3.48,0-5-2.07-5-5.15h6A33.26,33.26,0,0,0,42,28.46Zm-9.83-3c.23-2,1.18-4,3.38-4,2.4,0,3,2.3,3,3.54,0,.11,0,.23,0,.39a11.73,11.73,0,0,1-1.7,0Z"/><path class="cls-2" d="M20.68,30l1.88,6.9a.32.32,0,0,0,.35.23H26.7c.19,0,.23-.12.19-.3L19.57,12c0-.18-.11-.23-.27-.23H14.47c-.12,0-.19.07-.19.23a6.61,6.61,0,0,1-.23,1.89L7.52,36.74c0,.28,0,.35.23.35h3.38c.23,0,.3-.07.35-.26L13.29,30h7.39ZM16.93,15.42H17c.57,2.69,2.13,8.26,2.78,10.81H14.24C15.18,22.66,16.45,18.11,16.93,15.42Z"/></svg>