<svg id="Capa_1" data-name="Capa 1" xmlns="http://www.w3.org/2000/svg" xmlns:xlink="http://www.w3.org/1999/xlink" viewBox="0 0 50.6 50.6"><defs><style>.cls-1{fill:url(#Degradado_sin_nombre_7);}.cls-2{fill:url(#Degradado_sin_nombre_6);}</style><linearGradient id="Degradado_sin_nombre_7" x1="-210.93" y1="-278.75" x2="-166.71" y2="-313.85" gradientTransform="matrix(1, 0, 0, -1, 216.02, -269.49)" gradientUnits="userSpaceOnUse"><stop offset="0" stop-color="#9013fe"/><stop offset="1" stop-color="#6610f2"/></linearGradient><linearGradient id="Degradado_sin_nombre_6" x1="-197.33" y1="-285.73" x2="-187.45" y2="-302.45" gradientTransform="matrix(1, 0, 0, -1, 216.02, -269.49)" gradientUnits="userSpaceOnUse"><stop offset="0" stop-color="#fff"/><stop offset="1" stop-color="#f1e5fc"/></linearGradient></defs><path class="cls-1" d="M5.58,10.41a5,5,0,0,1,4.93-5.27H40.1A5.05,5.05,0,0,1,45,10.41a28.1,28.1,0,0,0,.88,8.83C46.77,22,48.23,23.79,50.6,24v2.57c-2.37.22-3.83,2-4.69,4.78A28,28,0,0,0,45,40.19a5,5,0,0,1-4.93,5.27H10.51a5,5,0,0,1-4.93-5.27,28.61,28.61,0,0,0-.88-8.82c-.86-2.79-2.32-4.56-4.7-4.78V24c2.38-.23,3.84-2,4.7-4.78A28.71,28.71,0,0,0,5.58,10.41Z"/><path class="cls-2" d="M26.4,36c4.67,0,7.49-2.29,7.49-6.06a5.21,5.21,0,0,0-5-5.25v-.12a4.78,4.78,0,0,0,3.91-4.67c0-3.24-2.56-5.35-6.46-5.35H17.58V36ZM21,17.29h4.54c2.47,0,3.87,1.1,3.87,3.1s-1.63,3.31-4.58,3.31H21Zm0,16V26.24H25.5c3.23,0,4.9,1.19,4.9,3.51s-1.63,3.55-4.7,3.55Z"/></svg>