<svg id="Capa_1" data-name="Capa 1" xmlns="http://www.w3.org/2000/svg" viewBox="0 0 50.6 50.6"><defs><style>.cls-1{fill:#ee4323;}</style></defs><path class="cls-1" d="M17.81,50.6c-3-1.31-5.86-4.63-5.86-8,0-3.71,2.34-6.86,5.26-8.93-.35,1.33-.54,2.54.33,3.73a3.51,3.51,0,0,0,3.56,1.35c3.13-.68,3.27-4.12,1.42-6.12s-3.61-4.23-2.91-7.1A7.37,7.37,0,0,1,22,21.74c-.86,2.26,1.58,4.5,3.2,5.61C28,29.28,31,30.74,33.62,33s4.7,5.6,4.3,9.33c-.44,4-3.65,6.85-7.26,8.27,7.62-1.68,15.49-7.59,15.65-16,.13-6.95-4.63-12.3-10.54-15.36L35.46,19a2.34,2.34,0,0,1,.21,1,3.1,3.1,0,0,0,.1-.68,3.3,3.3,0,0,1-.11.82v-.14a3.27,3.27,0,0,1-.43,1l.08-.09a3.71,3.71,0,0,1-5.94.35c-2.53-3.25.05-6.76.41-10.21.46-4.32-2.25-8.51-5.61-11,1.85,3-.59,7-2.54,9.17s-4.19,3.93-6.27,5.88A51.88,51.88,0,0,0,9.13,22c-3.69,4.91-5.94,11.1-4.29,17.24s7,10,13,11.41Z"/></svg>