<svg id="Capa_1" data-name="Capa 1" xmlns="http://www.w3.org/2000/svg" viewBox="0 0 50.6 50.6"><defs><style>.cls-1{fill:#264de4;}.cls-2{fill:#2965f1;}.cls-3{fill:#ebebeb;}.cls-4{fill:#fff;}</style></defs><g id="layer1"><g id="g3013"><polygon id="polygon2989" class="cls-1" points="47.57 0.09 43.51 45.55 25.27 50.6 7.08 45.55 3.03 0.09 47.57 0.09"/><polygon id="polygon2991" class="cls-2" points="40.04 42.65 43.51 3.81 25.3 3.81 25.3 46.74 40.04 42.65"/><polygon id="polygon2993" class="cls-3" points="12.32 20.67 12.82 26.25 25.3 26.25 25.3 20.67 12.32 20.67"/><polygon id="polygon2995" class="cls-3" points="25.3 9.38 25.28 9.38 11.32 9.38 11.82 14.96 25.3 14.96 25.3 9.38"/><polygon id="polygon2997" class="cls-3" points="25.3 40.95 25.3 35.15 25.28 35.16 19.07 33.48 18.67 29.03 15.65 29.03 13.07 29.03 13.85 37.79 25.27 40.96 25.3 40.95"/><polygon id="polygon3005" class="cls-4" points="32.15 26.25 31.5 33.48 25.28 35.16 25.28 40.96 36.71 37.79 36.8 36.85 38.11 22.17 38.24 20.67 39.25 9.38 25.28 9.38 25.28 14.96 33.14 14.96 32.63 20.67 25.28 20.67 25.28 26.25 32.15 26.25"/></g></g></svg>