<?xml version="1.0" encoding="utf-8"?>
<!-- Generator: Adobe Illustrator 25.4.1, SVG Export Plug-In . SVG Version: 6.00 Build 0)  -->
<svg version="1.1" id="Layer_1" xmlns="http://www.w3.org/2000/svg" xmlns:xlink="http://www.w3.org/1999/xlink" x="0px" y="0px"
	 viewBox="0 0 547.8 547.8" style="enable-background:new 0 0 547.8 547.8;" xml:space="preserve">
<style type="text/css">
	.st0{fill:#0ACF83;}
	.st1{fill:#A259FF;}
	.st2{fill:#F24E1E;}
	.st3{fill:#FF7262;}
	.st4{fill:#1ABCFE;}
</style>
<desc>Created using Figma</desc>
<g>
	<path id="path0_fill" class="st0" d="M182.6,547.8c50.4,0,91.3-40.9,91.3-91.3v-91.3h-91.3c-50.4,0-91.3,40.9-91.3,91.3
		S132.2,547.8,182.6,547.8z"/>
	<path id="path1_fill" class="st1" d="M91.3,273.9c0-50.4,40.9-91.3,91.3-91.3h91.3v182.6h-91.3C132.2,365.2,91.3,324.3,91.3,273.9z
		"/>
	<path id="path1_fill_1_" class="st2" d="M91.3,91.3C91.3,40.9,132.2,0,182.6,0h91.3v182.6h-91.3C132.2,182.6,91.3,141.7,91.3,91.3z
		"/>
	<path id="path2_fill" class="st3" d="M273.9,0h91.3c50.4,0,91.3,40.9,91.3,91.3s-40.9,91.3-91.3,91.3h-91.3V0z"/>
	<path id="path3_fill" class="st4" d="M456.5,273.9c0,50.4-40.9,91.3-91.3,91.3s-91.3-40.9-91.3-91.3s40.9-91.3,91.3-91.3
		S456.5,223.5,456.5,273.9z"/>
</g>
</svg>
