<?xml version="1.0" encoding="utf-8"?>
<!-- Generator: Adobe Illustrator 25.4.1, SVG Export Plug-In . SVG Version: 6.00 Build 0)  -->
<svg version="1.1" id="Layer_1" xmlns="http://www.w3.org/2000/svg" xmlns:xlink="http://www.w3.org/1999/xlink" x="0px" y="0px"
	 viewBox="0 0 547.8 547.8" style="enable-background:new 0 0 547.8 547.8;" xml:space="preserve">
<style type="text/css">
	.st0{fill:#F05133;}
</style>
<path class="st0" d="M537.5,249.5L298.3,10.3c-13.8-13.8-36.1-13.8-49.9,0L198.7,60l63,63c14.6-4.9,31.4-1.6,43.1,10
	c11.7,11.7,15,28.7,10,43.4l60.7,60.7c14.7-5.1,31.6-1.8,43.4,10c16.4,16.4,16.4,43,0,59.4c-16.4,16.4-43,16.4-59.4,0
	c-12.3-12.3-15.4-30.5-9.1-45.7l-56.6-56.6l0,149c4,2,7.8,4.6,11.1,7.9c16.4,16.4,16.4,43,0,59.4c-16.4,16.4-43,16.4-59.4,0
	c-16.4-16.4-16.4-43,0-59.4c4.1-4,8.7-7.1,13.7-9.2V201.6c-5-2-9.7-5.1-13.7-9.2c-12.4-12.4-15.4-30.6-9-45.9l-62.1-62.1l-164,164
	c-13.8,13.8-13.8,36.1,0,49.9l239.2,239.2c13.8,13.8,36.1,13.8,49.9,0l238.1-238C551.3,285.6,551.3,263.3,537.5,249.5"/>
</svg>
