<svg id="Capa_1" data-name="Capa 1" xmlns="http://www.w3.org/2000/svg" xmlns:xlink="http://www.w3.org/1999/xlink" viewBox="0 0 50.6 50.6"><defs><style>.cls-1{fill:url(#Degradado_sin_nombre_3);}.cls-2{fill:#ff7f18;}</style><radialGradient id="Degradado_sin_nombre_3" cx="-239.12" cy="-278.25" r="0.02" gradientTransform="matrix(2291.67, 0, 0, -2276.98, 547994.64, -633548.07)" gradientUnits="userSpaceOnUse"><stop offset="0" stop-color="#423325" stop-opacity="0.98"/><stop offset="1" stop-color="#1c0a00"/></radialGradient></defs><path class="cls-1" d="M9.66.09H40.94A9.65,9.65,0,0,1,50.6,9.75V40.94a9.65,9.65,0,0,1-9.66,9.66H9.66A9.66,9.66,0,0,1,0,40.94V9.75A9.66,9.66,0,0,1,9.66.09Z"/><path class="cls-2" d="M34.92,11.45a2.21,2.21,0,0,0-2.33,2.32,2.14,2.14,0,0,0,2.28,2.32,2.18,2.18,0,0,0,2.37-2.32A2.19,2.19,0,0,0,34.92,11.45Z"/><path class="cls-2" d="M13.88,37.17c.23,0,.3-.05.34-.23L16,30.11h7.29L25.17,37c0,.16.16.21.35.21h3.77c.19,0,.23-.11.19-.3L22.24,12.31c0-.18-.12-.23-.28-.23H17.18c-.11,0-.18.07-.18.23a6.8,6.8,0,0,1-.23,1.89L10.31,36.83c-.05.27,0,.34.23.34ZM19.6,15.73h0c.57,2.66,2.07,8.17,2.71,10.69H17C17.91,22.9,19.12,18.39,19.6,15.73Z"/><path class="cls-2" d="M33.16,37.17h3.53c.23,0,.28-.09.28-.27v-18c0-.21-.1-.28-.28-.28H33.12c-.21,0-.27.09-.27.28h0V36.87C32.87,37.06,32.94,37.17,33.16,37.17Z"/></svg>