<svg id="Capa_1" data-name="Capa 1" xmlns="http://www.w3.org/2000/svg" viewBox="0 0 50.6 50.6"><defs><style>.cls-1{fill:#f7df1e;}</style></defs><rect class="cls-1" y="0.09" width="50.6" height="50.6"/><path d="M34,39.62a5.18,5.18,0,0,0,4.69,2.89c2,0,3.23-1,3.23-2.35,0-1.63-1.29-2.2-3.46-3.15l-1.19-.51c-3.43-1.46-5.71-3.3-5.71-7.17,0-3.56,2.72-6.28,7-6.28a7,7,0,0,1,6.76,3.81l-3.7,2.38a3.23,3.23,0,0,0-3.06-2,2.07,2.07,0,0,0-2.28,2c0,1.42.88,2,2.92,2.88l1.19.51c4,1.74,6.32,3.5,6.32,7.47,0,4.29-3.36,6.63-7.88,6.63s-7.27-2.1-8.66-4.86ZM17.19,40c.75,1.33,1.43,2.45,3.07,2.45s2.54-.61,2.54-3V23.32h4.76V39.56c0,4.92-2.89,7.16-7.1,7.16a7.4,7.4,0,0,1-7.14-4.34Z"/></svg>