<svg id="Capa_1" data-name="Capa 1" xmlns="http://www.w3.org/2000/svg" xmlns:xlink="http://www.w3.org/1999/xlink" viewBox="0 0 50.6 50.6"><defs><style>.cls-1{fill:url(#Degradado_sin_nombre_2);}.cls-2{fill:#31c5f0;}</style><radialGradient id="Degradado_sin_nombre_2" cx="-183.96" cy="-278.25" r="0.02" gradientTransform="matrix(2291.67, 0, 0, -2280.96, 421589.86, -634654.96)" gradientUnits="userSpaceOnUse"><stop offset="0" stop-color="#34364e" stop-opacity="0.98"/><stop offset="1" stop-color="#0c0824"/></radialGradient></defs><path class="cls-1" d="M9.13,0H41.48A9.25,9.25,0,0,1,50.6,9.38V41.22a9.25,9.25,0,0,1-9.12,9.38H9.13A9.26,9.26,0,0,1,0,41.22V9.38A9.26,9.26,0,0,1,9.13,0Z"/><path class="cls-2" d="M17.23,12.42c-2.28,0-4.46.05-5.94.12-.18,0-.5.11-.5.27h0V37.52c0,.2.09.27.27.27h3.52c.21,0,.28-.09.28-.27V28.68c.62,0,.92.05,1.79.05,5.2,0,9.43-2.51,9.43-8.35C26.08,15.92,23.6,12.42,17.23,12.42Zm-.48,12.65c-.92,0-1.34,0-1.87,0V16.15c.42,0,1.29-.07,2.21-.07,3.06,0,4.88,1.47,4.88,4.39C22,24.13,19.44,25.07,16.75,25.07Z"/><path class="cls-2" d="M35.08,26.64c-2.44-1.27-2.85-1.84-2.85-2.67s.62-1.68,2.43-1.68a7.84,7.84,0,0,1,4,1c.23.07.34,0,.34-.23V19.94a.5.5,0,0,0-.23-.46,10.7,10.7,0,0,0-4.12-.64c-4,0-6.34,2.46-6.34,5.43,0,2.64,1.35,4.23,4.62,5.79,2.32,1.2,2.85,1.94,2.85,2.76,0,1-.76,1.8-2.58,1.8a8.58,8.58,0,0,1-4.62-1.36c-.16-.11-.27,0-.27.18v3.39c0,.18,0,.29.18.36a9.93,9.93,0,0,0,4.71,1c3.8,0,6.61-2,6.61-5.66C39.82,30.06,38.69,28.38,35.08,26.64Z"/></svg>