<svg id="Capa_1" data-name="Capa 1" xmlns="http://www.w3.org/2000/svg" xmlns:xlink="http://www.w3.org/1999/xlink" viewBox="0 0 50.6 50.6"><defs><style>.cls-1{fill:none;}.cls-2{clip-path:url(#clip-path);}.cls-3{fill:url(#Degradado_sin_nombre_5);}.cls-4{clip-path:url(#clip-path-2);}.cls-5{fill:#777bb3;}.cls-6{fill:#fff;}</style><clipPath id="clip-path"><path class="cls-1" d="M.38,25.39c0,7.26,11.18,13.14,25,13.14h0c13.79,0,25-5.88,25-13.14h0c0-7.26-11.19-13.14-25-13.14h0c-13.8,0-25,5.88-25,13.14"/></clipPath><radialGradient id="Degradado_sin_nombre_5" cx="-0.68" cy="50.02" r="0.07" gradientTransform="matrix(453.82, 0, 0, -453.82, 323.21, 22719.03)" gradientUnits="userSpaceOnUse"><stop offset="0" stop-color="#aeb2d5"/><stop offset="0.3" stop-color="#aeb2d5"/><stop offset="0.75" stop-color="#484c89"/><stop offset="1" stop-color="#484c89"/></radialGradient><clipPath id="clip-path-2"><rect class="cls-1" x="-0.66" y="10.75" width="52.04" height="29.27"/></clipPath></defs><g id="g3438"><g id="g3440"><g class="cls-2"><g id="g3442"><g id="g3448"><g id="g3450"><path id="path3462" class="cls-3" d="M.38,25.39c0,7.26,11.18,13.14,25,13.14h0c13.79,0,25-5.88,25-13.14h0c0-7.26-11.19-13.14-25-13.14h0c-13.8,0-25,5.88-25,13.14"/></g></g></g></g></g><g id="g3464"><g class="cls-4"><g id="g3466"><g id="g3472"><path id="path3474" class="cls-5" d="M25.36,37.55c13.25,0,24-5.44,24-12.16s-10.75-12.16-24-12.16-24,5.44-24,12.16,10.75,12.16,24,12.16"/></g></g></g></g><g id="g3476"><g class="cls-4"><g id="g3478"><g id="g3484"><path id="path3486" d="M14,26.9a4,4,0,0,0,2.42-.6,3.19,3.19,0,0,0,1-2,2.2,2.2,0,0,0-.19-1.84,2.74,2.74,0,0,0-2-.51H13.5l-1,5ZM8.25,33a.28.28,0,0,1-.21-.1.25.25,0,0,1,0-.22l2.55-13.17a.28.28,0,0,1,.27-.22h5.52a4.84,4.84,0,0,1,3.83,1.4,4.36,4.36,0,0,1,.75,3.88,6.31,6.31,0,0,1-.66,1.84A6.09,6.09,0,0,1,19,28a5.41,5.41,0,0,1-2,1.2,9,9,0,0,1-2.76.36H12l-.63,3.28a.28.28,0,0,1-.27.22Z"/></g><g id="g3488"><path id="path3490" class="cls-6" d="M13.72,22.2h1.52c1.21,0,1.63.27,1.78.42a2,2,0,0,1,.13,1.61,3,3,0,0,1-.95,1.86,3.7,3.7,0,0,1-2.25.54H12.86ZM16.33,19H10.81a.54.54,0,0,0-.53.44L7.72,32.64a.55.55,0,0,0,.11.45.55.55,0,0,0,.42.2h2.87a.54.54,0,0,0,.53-.44l.6-3.06h2a9.19,9.19,0,0,0,2.84-.37,5.6,5.6,0,0,0,2.11-1.26,6.4,6.4,0,0,0,1.27-1.6,6.48,6.48,0,0,0,.7-1.92,4.65,4.65,0,0,0-.81-4.11,5.12,5.12,0,0,0-4-1.49M12.2,27.17H14a4.22,4.22,0,0,0,2.58-.65,3.49,3.49,0,0,0,1.15-2.19,2.39,2.39,0,0,0-.26-2.07,2.94,2.94,0,0,0-2.18-.6h-2L12.2,27.17m4.13-7.59A4.58,4.58,0,0,1,20,20.89a4.07,4.07,0,0,1,.68,3.64A5.64,5.64,0,0,1,20,26.3a6,6,0,0,1-1.17,1.46,5,5,0,0,1-1.91,1.15,9,9,0,0,1-2.67.34H11.8l-.68,3.5H8.25l2.56-13.17h5.52"/></g><g id="g3492"><path id="path3494" d="M27.49,29.52a.28.28,0,0,1-.21-.1.29.29,0,0,1-.06-.22l1.13-5.83a1.45,1.45,0,0,0-.07-1.12c-.1-.1-.38-.28-1.23-.28H25L23.57,29.3a.26.26,0,0,1-.26.22H20.46a.28.28,0,0,1-.21-.1.25.25,0,0,1-.05-.22L22.76,16a.26.26,0,0,1,.26-.22h2.85a.25.25,0,0,1,.21.1.25.25,0,0,1,.05.22l-.61,3.18h2.2a5.15,5.15,0,0,1,3.49.91,3,3,0,0,1,.63,3l-1.2,6.13a.26.26,0,0,1-.26.22Z"/></g><g id="g3496"><path id="path3498" class="cls-6" d="M25.87,15.54H23a.54.54,0,0,0-.53.44L19.93,29.14a.55.55,0,0,0,.11.45.55.55,0,0,0,.42.2h2.85a.54.54,0,0,0,.53-.44l1.38-7.1h1.83c.85,0,1,.18,1,.18s.12.31,0,.89L27,29.14a.56.56,0,0,0,.12.45.53.53,0,0,0,.42.2h2.89a.54.54,0,0,0,.53-.44l1.19-6.13a3.25,3.25,0,0,0-.71-3.2,5.36,5.36,0,0,0-3.67-1H25.85l.55-2.86a.56.56,0,0,0-.11-.45.57.57,0,0,0-.42-.19m0,.54-.68,3.5h2.53a5,5,0,0,1,3.3.83,2.77,2.77,0,0,1,.55,2.71l-1.19,6.13H27.49l1.13-5.83a1.58,1.58,0,0,0-.14-1.35,2,2,0,0,0-1.43-.37H24.77l-1.46,7.55H20.46L23,16.08h2.85"/></g><g id="g3500"><path id="path3502" d="M36.34,26.9a4,4,0,0,0,2.42-.6,3.19,3.19,0,0,0,1-2,2.2,2.2,0,0,0-.19-1.84,2.75,2.75,0,0,0-2-.51H35.89l-1,5ZM30.64,33a.28.28,0,0,1-.21-.1.29.29,0,0,1-.06-.22l2.56-13.17a.28.28,0,0,1,.27-.22h5.52a4.84,4.84,0,0,1,3.83,1.4,4.36,4.36,0,0,1,.75,3.88A6,6,0,0,1,41.42,28a5.41,5.41,0,0,1-2,1.2,9,9,0,0,1-2.76.36H34.41l-.63,3.28a.28.28,0,0,1-.27.22Z"/></g><g id="g3504"><path id="path3506" class="cls-6" d="M36.11,22.2h1.52c1.21,0,1.63.27,1.78.42a2,2,0,0,1,.13,1.61,3,3,0,0,1-.95,1.86,3.7,3.7,0,0,1-2.25.54H35.25ZM38.72,19H33.2a.54.54,0,0,0-.53.44L30.11,32.64a.55.55,0,0,0,.11.45.55.55,0,0,0,.42.2h2.87a.54.54,0,0,0,.53-.44l.6-3.06h2a9.19,9.19,0,0,0,2.84-.37,5.6,5.6,0,0,0,2.11-1.26,6.4,6.4,0,0,0,1.27-1.6,6.48,6.48,0,0,0,.7-1.92,4.65,4.65,0,0,0-.81-4.11,5.12,5.12,0,0,0-4-1.49m-4.13,8.13h1.75a4.24,4.24,0,0,0,2.58-.65,3.49,3.49,0,0,0,1.15-2.19,2.39,2.39,0,0,0-.26-2.07,2.94,2.94,0,0,0-2.18-.6h-2l-1.07,5.51m4.13-7.59a4.58,4.58,0,0,1,3.63,1.31A4.07,4.07,0,0,1,43,24.53a5.64,5.64,0,0,1-.63,1.77,6,6,0,0,1-1.17,1.46,5,5,0,0,1-1.91,1.15,9,9,0,0,1-2.67.34H34.19l-.68,3.5H30.64L33.2,19.58h5.52"/></g></g></g></g></g></svg>