<?xml version="1.0" encoding="utf-8"?>
<!-- Generator: Adobe Illustrator 25.4.1, SVG Export Plug-In . SVG Version: 6.00 Build 0)  -->
<svg version="1.1" id="Layer_1" xmlns="http://www.w3.org/2000/svg" xmlns:xlink="http://www.w3.org/1999/xlink" x="0px" y="0px"
	 viewBox="0 0 547.8 547.8" style="enable-background:new 0 0 547.8 547.8;" xml:space="preserve">
<style type="text/css">
	.st0{fill:#2684FF;}
	.st1{fill:url(#SVGID_1_);}
</style>
<g>
	<path class="st0" d="M490.8,217c0-119.8-97.2-217-217-217c0,0,0,0,0,0C154-0.2,56.7,96.7,56.5,216.5
		c-0.2,94.2,60.5,177.8,150.2,206.8v108.7c0,8.4,6.8,15.3,15.3,15.3h103c8.4,0,15.3-6.8,15.3-15.3V423.5
		C430,394.7,490.9,311.2,491,216.9L490.8,217z M273.8,290.3c-40.5,0-73.3-32.8-73.3-73.3s32.8-73.3,73.3-73.3
		c40.5,0,73.4,32.8,73.4,73.4S314.4,290.3,273.8,290.3L273.8,290.3z"/>
	
		<linearGradient id="SVGID_1_" gradientUnits="userSpaceOnUse" x1="31.1318" y1="513.6656" x2="31.1318" y2="520.2794" gradientTransform="matrix(34.8529 0 0 -34.8529 -702.518 18286.9297)">
		<stop  offset="0.18" style="stop-color:#0052CC"/>
		<stop  offset="1" style="stop-color:#2684FF"/>
	</linearGradient>
	<path class="st1" d="M273.8,0v143.7c40.5,0,73.4,32.8,73.4,73.4c0,40.5-32.8,73.4-73.4,73.4c37.1,0,67.1,30.1,67.1,67.1l0,0v65.9
		c114-36.9,176.6-159.2,139.7-273.3C451.7,60.5,368-0.2,273.8,0L273.8,0z"/>
</g>
</svg>
