<svg id="Capa_1" data-name="Capa 1" xmlns="http://www.w3.org/2000/svg" viewBox="0 0 50.6 50.6"><defs><style>.cls-1{fill:#2489ca;}.cls-2{fill:#1070b3;}.cls-3{fill:#0877b9;}.cls-4{fill:#3c99d4;}</style></defs><path class="cls-1" d="M.59,17.56s-1.23-.88.24-2.07l3.44-3.07a1.47,1.47,0,0,1,2-.14L38,36.31V47.83s0,1.81-2.34,1.61Z"/><path class="cls-2" d="M8.77,25,.59,32.42s-.84.63,0,1.75l3.79,3.45a1.57,1.57,0,0,0,2.24-.13l8.67-6.58Z"/><path class="cls-3" d="M23.13,25.05l15-11.45L38,2.14s-.64-2.5-2.78-1.2l-20,18.16Z"/><path class="cls-4" d="M35.69,49.45a2.07,2.07,0,0,0,1.93.6l11.69-5.76A2.46,2.46,0,0,0,50.59,42V7.61a2.29,2.29,0,0,0-1.54-2L38.91.69a2.8,2.8,0,0,0-3.66.25S37.12-.41,38,2.14V47.62a2.07,2.07,0,0,1-.2.89c-.27.54-.85,1.05-2.24.83Z"/></svg>