<svg id="Capa_1" data-name="Capa 1" xmlns="http://www.w3.org/2000/svg" viewBox="0 0 50.6 50.6"><defs><style>.cls-1{fill:#21759b;}</style></defs><path class="cls-1" d="M4,25.3A21.3,21.3,0,0,0,16,44.47L5.85,16.63A21.09,21.09,0,0,0,4,25.3Z"/><path class="cls-1" d="M39.68,24.23a11.22,11.22,0,0,0-1.76-5.88c-1.08-1.75-2.09-3.24-2.09-5a3.69,3.69,0,0,1,3.58-3.78h.27a21.29,21.29,0,0,0-32.17,4l1.37,0c2.22,0,5.67-.27,5.67-.27a.88.88,0,0,1,.14,1.75s-1.15.14-2.44.21L20,38.39l4.66-14-3.32-9.1c-1.15-.06-2.23-.2-2.23-.2a.88.88,0,0,1,.13-1.75s3.52.27,5.61.27,5.68-.27,5.68-.27a.88.88,0,0,1,.13,1.75s-1.15.14-2.43.2l7.69,22.9,2.13-7.1C39,28.17,39.68,26.05,39.68,24.23Z"/><path class="cls-1" d="M25.68,27.16l-6.4,18.57a21.26,21.26,0,0,0,13.09-.34c0-.09-.1-.18-.15-.29Z"/><path class="cls-1" d="M44,15.08a16.69,16.69,0,0,1,.14,2.19,20,20,0,0,1-1.62,7.63L36,43.71a21.3,21.3,0,0,0,8-28.63Z"/><path class="cls-1" d="M25.3.47A24.83,24.83,0,1,0,50.13,25.3,24.86,24.86,0,0,0,25.3.47ZM25.3,49A23.69,23.69,0,1,1,49,25.3,23.72,23.72,0,0,1,25.3,49Z"/></svg>